<svg xmlns="http://www.w3.org/2000/svg" xmlns:xlink="http://www.w3.org/1999/xlink" version="1.1" x="0px" y="0px" viewBox="0 0 64 64" enable-background="new 0 0 64 64" xml:space="preserve">
<g id="brain-outline-bop_x5F_s1g1_x5F_s2g1_x5F_s3g1_x5F_s4g1_x5F_background">
	
	<path fill="#FFFFFF" stroke="#000000" stroke-width="2" stroke-linecap="round" stroke-linejoin="round" stroke-miterlimit="10" d="   M38.055,13.12c3.356,0,6.077,2.721,6.077,6.077c0,1.069-0.278,2.072-0.763,2.945c0.393-0.08,0.799-0.122,1.215-0.122   c3.356,0,6.077,2.721,6.077,6.077c0,2.051-1.019,3.861-2.575,4.961c1.795,1.056,3.003,3.003,3.003,5.236   c0,3.356-2.721,6.077-6.077,6.077c-0.309,0-0.609-0.03-0.906-0.075c0.014,0.168,0.026,0.336,0.026,0.507   c0,3.356-2.721,6.077-6.077,6.077s-6.077-2.721-6.077-6.077V19.197C31.978,15.841,34.699,13.12,38.055,13.12z"/>
	<path fill="none" stroke="#000000" stroke-width="2" stroke-linecap="round" stroke-linejoin="round" stroke-miterlimit="10" d="   M38.508,28.097c0,3.356,2.721,6.077,6.077,6.077c1.823,0,3.459-0.803,4.573-2.075"/>
	<path fill="none" stroke="#000000" stroke-width="2" stroke-linecap="round" stroke-linejoin="round" stroke-miterlimit="10" d="   M38.935,38.294c0,3.356,2.721,6.077,6.077,6.077"/>
	<path fill="none" stroke="#000000" stroke-width="2" stroke-linecap="round" stroke-linejoin="round" stroke-miterlimit="10" d="   M41.452,24.236c1.048-0.708,1.863-1.734,2.307-2.94"/>
</g>
<g id="brain-outline-top_x5F_s1g1_x5F_s2g2_x5F_s3g1_x5F_s4g1_x5F_background">
	
		<path fill="#FFFFFF" stroke="#000000" stroke-width="2" stroke-linecap="round" stroke-linejoin="round" stroke-miterlimit="10" d="   M25.945,13.12c-3.356,0-6.077,2.721-6.077,6.077c0,1.069,0.278,2.072,0.763,2.945c-0.393-0.08-0.799-0.122-1.215-0.122   c-3.356,0-6.077,2.721-6.077,6.077c0,2.051,1.019,3.861,2.575,4.961c-1.795,1.056-3.003,3.003-3.003,5.236   c0,3.356,2.721,6.077,6.077,6.077c0.309,0,0.609-0.03,0.906-0.075c-0.014,0.168-0.026,0.336-0.026,0.507   c0,3.356,2.721,6.077,6.077,6.077s6.077-2.721,6.077-6.077V19.197C32.022,15.841,29.301,13.12,25.945,13.12z"/>
	<path fill="none" stroke="#000000" stroke-width="2" stroke-linecap="round" stroke-linejoin="round" stroke-miterlimit="10" d="   M25.492,28.097c0,3.356-2.721,6.077-6.077,6.077c-1.823,0-3.459-0.803-4.573-2.075"/>
	<path fill="none" stroke="#000000" stroke-width="2" stroke-linecap="round" stroke-linejoin="round" stroke-miterlimit="10" d="   M25.065,38.294c0,3.356-2.721,6.077-6.077,6.077"/>
	<path fill="none" stroke="#000000" stroke-width="2" stroke-linecap="round" stroke-linejoin="round" stroke-miterlimit="10" d="   M22.548,24.236c-1.048-0.708-1.863-1.734-2.307-2.94"/>
</g>
</svg>