<svg fill="#000000" version="1.1" id="Layer_1" xmlns:x="&amp;ns_extend;" xmlns:i="&amp;ns_ai;" xmlns:graph="&amp;ns_graphs;" xmlns="http://www.w3.org/2000/svg" xmlns:xlink="http://www.w3.org/1999/xlink" viewBox="0 0 24 24" enable-background="new 0 0 24 24" xml:space="preserve">
<g id="SVGRepo_bgCarrier" stroke-width="0"></g>
<g id="SVGRepo_tracerCarrier" stroke-linecap="round" stroke-linejoin="round"></g>
<g id="SVGRepo_iconCarrier">
 <metadata> <sfw xmlns="&amp;ns_sfw;"> 
    <slices> </slices> 
    <slicesourcebounds width="505" height="984" bottomleftorigin="true" x="0" y="-984"> </slicesourcebounds>
     </sfw> 
        </metadata> 
            <g> 
                <g> 
                    <g> 
                    <path d="M24,24H5c-2.2,0-4-1.8-4-4V1c0-0.6,0.4-1,1-1s1,0.4,1,1v19c0,1.1,0.9,2,2,2h19c0.6,0,1,0.4,1,1S24.6,24,24,24z" stroke-width="1"></path>
                    </g> 
                </g> 
                    <g> 
                        <g> 
                        <path d="M6,20c-0.6,0-1-0.4-1-1v-5c0-0.6,0.4-1,1-1s1,0.4,1,1v5C7,19.6,6.6,20,6,20z" stroke-width="2"></path> 
                        </g>
                    </g> 
            <g> 
                <g> 
                <path d="M10,20c-0.6,0-1-0.4-1-1v-9c0-0.6,0.4-1,1-1s1,0.4,1,1v9C11,19.6,10.6,20,10,20z" stroke-width="2"></path>
                </g> 
            </g> 
            <g> 
                <g> 
                <path d="M14,20c-0.6,0-1-0.4-1-1v-7c0-0.6,0.4-1,1-1s1,0.4,1,1v7C15,19.6,14.6,20,14,20z" stroke-width="2"></path> 
                </g> 
            </g> 
            <g> 
                <g> 
                    <path d="M18,20c-0.6,0-1-0.4-1-1V7c0-0.6,0.4-1,1-1s1,0.4,1,1v12C19,19.6,18.6,20,18,20z" stroke-width="2"></path>
                </g> 
            </g> 
            <g> 
                <g> 
                    <path d="M22,20c-0.6,0-1-0.4-1-1v-6c0-0.6,0.4-1,1-1s1,0.4,1,1v6C23,19.6,22.6,20,22,20z" stroke-width="2"></path> 
                </g> 
            </g> 
            </g> 
            </g>
</svg>