<svg xmlns="http://www.w3.org/2000/svg" xmlns:xlink="http://www.w3.org/1999/xlink" version="1.1" x="0px" y="0px" viewBox="0 0 64 64" enable-background="new 0 0 64 64" xml:space="preserve">
<g id="paypal-outline-bot_x5F_s1g1_x5F_s2g2_x5F_s3g1_x5F_s4g1_x5F_background">
	
		<path fill="#FFFFFF" stroke="#000000" stroke-width="1" stroke-linecap="round" stroke-linejoin="round" stroke-miterlimit="10" d="   M46.384,31.082L46.384,31.082c0,4.434-3.594,8.028-8.028,8.028h-4.077c-1.43,0-2.635,1.069-2.805,2.49l-0.559,4.686   c-0.169,1.42-1.374,2.49-2.805,2.49h-0.896c-1.714,0-3.033-1.514-2.798-3.212L27.2,25.482c0.194-1.397,1.388-2.437,2.798-2.437   h8.35C42.786,23.045,46.384,26.643,46.384,31.082z"/>
</g>
<g id="paypal-outline-top_x5F_s1g1_x5F_s2g1_x5F_s3g1_x5F_s4g1_x5F_background">
	
		<path fill="#FFFFFF" stroke="#000000" stroke-width="1" stroke-linecap="round" stroke-linejoin="round" stroke-miterlimit="10" d="   M42.658,24.355L42.658,24.355c0,5.03-4.09,9.12-9.13,9.12h-4.963c-1.43,0-2.635,1.069-2.805,2.49l-0.716,6   c-0.169,1.42-1.374,2.49-2.805,2.49h-1.8c-1.714,0-3.033-1.514-2.798-3.212l3.267-23.581c0.194-1.397,1.388-2.437,2.798-2.437h9.82   C38.571,15.225,42.658,19.313,42.658,24.355z"/>
</g>
</svg>